# xmcd
#
# Track frame offsets:
#	150
#	23115
#	45578
#	66788
#	88555
#	105460
#	129403
#	151625
#	168930
#	194288
#
# Disc length: 2867 seconds
#
# Revision: 1
# Processed by: cddbd v1.5.1PL0 Copyright (c) Steve Scherf et al.
# Submitted via: audiograbber 1.83.01
#
DISCID=6f0b310a
DTITLE=Various Artist - Gap Nhau
DYEAR=1995
DGENRE=VN Vocal
TTITLE0=Huong Lan and Tuan Vu - Em Hau Phuong Anh Tuyen Tuyen
TTITLE1=Thai Chau - Tra Lai Em
TTITLE2=Phi Nhung - Nho Nhau Hoai
TTITLE3=My Huyen and Quoc Tuan - Gap Nhau
TTITLE4=Nguyen Son - Chuyen Ba Mua Mua
TTITLE5=Huong Lan and Quoc Tuan - Vi Trong Nghich Canh
TTITLE6=Phi Nhung - Nhat Ky Doi Toi
TTITLE7=Nguyen Son - Duoc Tin Em Lay Chong
TTITLE8=My Huyen and Quoc Tuan - Dem Bo Vo
TTITLE9=Phi Nhung - Sau Ngay Hanh Quan
EXTD=Thuy Anh Productions 9113 Bolsa Ave Ste 112 Westminster CA 92683
EXTT0=
EXTT1=
EXTT2=
EXTT3=
EXTT4=
EXTT5=
EXTT6=
EXTT7=
EXTT8=
EXTT9=
PLAYORDER=
